<svg xmlns="http://www.w3.org/2000/svg" width="32" height="32" viewBox="0 0 32 32">
  <g id="ic_benefícios" transform="translate(0 0.5)">
    <rect id="Rectangle_37" data-name="Rectangle 37" width="32" height="32" transform="translate(0 -0.5)" fill="none"/>
    <g id="Group_55" data-name="Group 55" transform="translate(0.75 2.5)">
      <path id="Path_190" data-name="Path 190" d="M2.5,8.5V4a3,3,0,0,1,3-3h21a3,3,0,0,1,3,3V22a3,3,0,0,1-3,3h-9" fill="none" stroke="#0047ba" stroke-linecap="round" stroke-linejoin="round" stroke-width="2"/>
      <path id="Path_191" data-name="Path 191" d="M11.5,25l-.377-.945a3.456,3.456,0,0,0-.864-1.259h0a3.462,3.462,0,0,0-2.353-.922H4.594A3.466,3.466,0,0,0,2.24,22.8h0a3.456,3.456,0,0,0-.864,1.259L1,25" fill="none" stroke="#0047ba" stroke-linecap="round" stroke-linejoin="round" stroke-width="2"/>
      <path id="Path_192" data-name="Path 192" d="M8.106,13.769a2.625,2.625,0,1,1-3.712,0,2.626,2.626,0,0,1,3.712,0" fill="none" stroke="#0047ba" stroke-linecap="round" stroke-linejoin="round" stroke-width="2"/>
      <path id="Path_193" data-name="Path 193" d="M14.5,17.5v-9" fill="none" stroke="#0047ba" stroke-linecap="round" stroke-linejoin="round" stroke-width="2" opacity="0.5"/>
      <path id="Path_194" data-name="Path 194" d="M19,17.5V12.52" fill="none" stroke="#0047ba" stroke-linecap="round" stroke-linejoin="round" stroke-width="2" opacity="0.5"/>
      <path id="Path_195" data-name="Path 195" d="M23.5,17.5V9.325" fill="none" stroke="#0047ba" stroke-linecap="round" stroke-linejoin="round" stroke-width="2" opacity="0.5"/>
    </g>
  </g>
</svg>
