<svg xmlns="http://www.w3.org/2000/svg" width="32" height="32" viewBox="0 0 32 32">
  <g id="ic_controle" transform="translate(0 0.5)">
    <rect id="Rectangle_37" data-name="Rectangle 37" width="32" height="32" transform="translate(0 -0.5)" fill="none"/>
    <g id="wallet" transform="translate(3.673 3.75)">
      <path id="Path_198" data-name="Path 198" d="M-1312.777-1567.543a4.909,4.909,0,0,1-4.9-4.9v-14.914a4.91,4.91,0,0,1,4.9-4.9H-1296a4.911,4.911,0,0,1,4.9,4.9v2.806a3.035,3.035,0,0,1,1.864,2.787v3.729a3.035,3.035,0,0,1-1.864,2.787v2.806a4.909,4.909,0,0,1-4.9,4.9Zm-2.56-19.81v14.914a2.568,2.568,0,0,0,2.561,2.56H-1296a2.568,2.568,0,0,0,2.56-2.56V-1575H-1296a4.866,4.866,0,0,1-4.333-2.662l-.013-.022c-.012-.021-.023-.042-.034-.065a4.827,4.827,0,0,1-.241-.591c-.034-.1-.081-.236-.118-.38-.039-.162-.065-.321-.085-.456-.005-.031-.013-.063-.02-.095a1.561,1.561,0,0,1-.034-.2.856.856,0,0,1,0-.14c0-.023,0-.045,0-.061s0-.046-.009-.075a1.037,1.037,0,0,1-.014-.153,2.005,2.005,0,0,1,.02-.249c.006-.047.012-.093.015-.135l.006-.085c.009-.1.016-.209.033-.318a4.857,4.857,0,0,1,.164-.661c.01-.032.019-.066.029-.1.019-.068.039-.139.067-.212a4.8,4.8,0,0,1,.346-.694c.014-.023.027-.049.039-.074a1.489,1.489,0,0,1,.078-.138,4.835,4.835,0,0,1,.646-.79l.006-.006a4.725,4.725,0,0,1,2.481-1.34,4.963,4.963,0,0,1,.964-.095h2.563v-2.56a2.567,2.567,0,0,0-2.561-2.56h-16.778A2.567,2.567,0,0,0-1315.336-1587.353Zm17.546,5.643,0,0a2.467,2.467,0,0,0-.351.428l0,0c-.007.015-.015.03-.023.044a2.456,2.456,0,0,0-.215.428c-.007.018-.013.042-.02.068s-.012.044-.019.065a2.538,2.538,0,0,0-.092.37c-.007.049-.012.105-.016.164l0,.038a2.466,2.466,0,0,0-.007.32,2.521,2.521,0,0,0,.026.265c.012.075.024.154.044.228.013.054.032.11.051.167l.007.022a2.781,2.781,0,0,0,2.574,1.759h3.573a.7.7,0,0,0,.7-.695v-3.729a.7.7,0,0,0-.7-.7h-3.748A2.489,2.489,0,0,0-1297.791-1581.71Z" transform="translate(1315.782 1591.646)" fill="#0047ba"/>
      <path id="Path_199" data-name="Path 199" d="M-1317.673-1585v-5.8a1.452,1.452,0,0,1,1.451-1.45,1.452,1.452,0,0,1,1.45,1.45v5.8a1.452,1.452,0,0,1-1.45,1.45A1.452,1.452,0,0,1-1317.673-1585Z" transform="translate(1320.223 1599.648)" fill="#0047ba" opacity="0.5"/>
    </g>
  </g>
</svg>
