<svg xmlns="http://www.w3.org/2000/svg" width="19.75" height="29.35" viewBox="0 0 19.75 29.35">
  <g id="ic_card" transform="translate(-1255.25 -617)">
    <g id="Group_19" data-name="Group 19">
      <path id="Path_47" data-name="Path 47" d="M17,9.583v14.4a3.2,3.2,0,0,1-3.2,3.2H4.2a3.2,3.2,0,0,1-3.2-3.2V4.783a3.2,3.2,0,0,1,3.2-3.2H9" transform="translate(1255 618.417)" fill="none" stroke="#ffb71a" stroke-linecap="round" stroke-linejoin="round" stroke-width="1.5"/>
      <rect id="Rectangle_33" data-name="Rectangle 33" width="1.5" height="26" transform="translate(1260 620)" fill="#ffb71a"/>
    </g>
    <path id="Path_48" data-name="Path 48" d="M7.3,3.3H4.7V.7A.7.7,0,0,0,3.3.7V3.3H.7A.7.7,0,0,0,.7,4.7H3.3V7.3A.7.7,0,0,0,4.7,7.3V4.7H7.3A.7.7,0,0,0,7.3,3.3Z" transform="translate(1267 617)" fill="#ffb71a" opacity="0.5"/>
  </g>
</svg>
