<svg xmlns="http://www.w3.org/2000/svg" width="32" height="32" viewBox="0 0 32 32">
  <g id="ic_colaboradores" transform="translate(0 0.5)">
    <rect id="Retângulo_37" data-name="Retângulo 37" width="32" height="32" transform="translate(0 -0.5)" fill="none"/>
    <g id="group" transform="translate(0 -0.5)">
      <path id="Caminho_88" data-name="Caminho 88" d="M15.867,14.881A4.941,4.941,0,1,0,10.926,9.94a4.941,4.941,0,0,0,4.941,4.941Zm0-7.881a2.941,2.941,0,1,1-2.941,2.941A2.941,2.941,0,0,1,15.867,7Z" fill="#0047ba"/>
      <path id="Caminho_89" data-name="Caminho 89" d="M6.533,17.785a3.8,3.8,0,1,0-3.8-3.8,3.8,3.8,0,0,0,3.8,3.8Zm0-5.6a1.8,1.8,0,1,1-1.8,1.8,1.8,1.8,0,0,1,1.8-1.8Z" fill="#0047ba" opacity="0.5"/>
      <path id="Caminho_90" data-name="Caminho 90" d="M25.2,17.785a3.8,3.8,0,1,0-3.8-3.8,3.8,3.8,0,0,0,3.8,3.8Zm0-5.6a1.8,1.8,0,1,1-1.8,1.8A1.8,1.8,0,0,1,25.2,12.185Z" fill="#0047ba" opacity="0.5"/>
      <path id="Caminho_91" data-name="Caminho 91" d="M25.333,19.791a5.269,5.269,0,0,0-2.506.653A8.237,8.237,0,0,0,16,16.607a8.237,8.237,0,0,0-6.827,3.837,5.269,5.269,0,0,0-2.506-.653A5.963,5.963,0,0,0,1,26a1,1,0,0,0,2,0,3.971,3.971,0,0,1,3.667-4.209,3.272,3.272,0,0,1,1.577.419,10.085,10.085,0,0,0-.711,3.732,1,1,0,0,0,2,0c0-4.045,2.9-7.335,6.467-7.335s6.467,3.29,6.467,7.335a1,1,0,0,0,2,0,10.085,10.085,0,0,0-.711-3.732,3.272,3.272,0,0,1,1.577-.419A3.971,3.971,0,0,1,29,26a1,1,0,0,0,2,0,5.963,5.963,0,0,0-5.667-6.209Z" fill="#0047ba"/>
    </g>
  </g>
</svg>
