<svg xmlns="http://www.w3.org/2000/svg" width="33" height="32" viewBox="0 0 33 32">
  <g id="ic_mobile" transform="translate(1 0.5)">
    <rect id="Retângulo_37" data-name="Retângulo 37" width="32" height="32" transform="translate(0 -0.5)" fill="none"/>
    <g id="Grupo_26" data-name="Grupo 26" transform="translate(-7 0.5)">
      <path id="Caminho_70" data-name="Caminho 70" d="M22,28.5H10a3,3,0,0,1-3-3V4.5a3,3,0,0,1,3-3H22a3,3,0,0,1,3,3v21A3,3,0,0,1,22,28.5Z" fill="none" stroke="#0047ba" stroke-linecap="round" stroke-linejoin="round" stroke-width="2"/>
      <path id="Caminho_71" data-name="Caminho 71" d="M16,22.875a.375.375,0,1,0,.377.375A.373.373,0,0,0,16,22.875" fill="none" stroke="#0047ba" stroke-linecap="round" stroke-linejoin="round" stroke-width="2" opacity="0.5"/>
      <path id="Caminho_72" data-name="Caminho 72" d="M14.125,6h3.75" fill="none" stroke="#0047ba" stroke-linecap="round" stroke-linejoin="round" stroke-width="2" opacity="0.5"/>
    </g>
  </g>
</svg>
