<svg xmlns="http://www.w3.org/2000/svg" width="32" height="32" viewBox="0 0 32 32">
  <g id="ic_pix" transform="translate(0 0.5)">
    <rect id="Rectangle_37" data-name="Rectangle 37" width="32" height="32" transform="translate(0 -0.5)" fill="none"/>
    <g id="pix-106" transform="translate(1.96 -21.655)">
      <path id="Path_161" data-name="Path 161" d="M79.708,207.042a3.826,3.826,0,0,1-2.827-1.263L72.8,201.358a.734.734,0,0,0-1.073,0l-4.1,4.434a3.829,3.829,0,0,1-2.827,1.266H64l5.175,5.6a3.921,3.921,0,0,0,5.848,0l5.185-5.611Z" transform="translate(-58.048 -162.748)" fill="#0047ba" opacity="0.5"/>
      <path id="Path_162" data-name="Path 162" d="M64.8,30a3.827,3.827,0,0,1,2.827,1.266l4.1,4.435a.72.72,0,0,0,1.073,0l4.083-4.418a3.821,3.821,0,0,1,2.827-1.267H80.2L75.014,24.4a3.916,3.916,0,0,0-5.848,0L64,30Z" transform="translate(-58.048 0)" fill="#0047ba" opacity="0.5"/>
      <path id="Path_163" data-name="Path 163" d="M26.85,114.358c-3.31-3.359-3.388-3.343-4.939-3.342a2.842,2.842,0,0,0-2.043.887l-4.218,4.415a1.962,1.962,0,0,1-2.863,0l-4.234-4.432A2.842,2.842,0,0,0,6.509,111c-1.882,0-1.955-.017-5.282,3.359a4.631,4.631,0,0,0,0,6.328c3.32,3.375,3.394,3.36,5.282,3.359a2.843,2.843,0,0,0,2.043-.887l4.233-4.434a2.008,2.008,0,0,1,2.864,0l4.218,4.417a2.842,2.842,0,0,0,2.043.887c1.551,0,1.629.017,4.939-3.342a4.625,4.625,0,0,0,0-6.328" transform="translate(0 -80.368)" fill="#0047ba"/>
    </g>
  </g>
</svg>
