<svg xmlns="http://www.w3.org/2000/svg" width="32" height="32" viewBox="0 0 32 32">
  <g id="ic_personalizar" transform="translate(0 0.5)">
    <rect id="Retângulo_37" data-name="Retângulo 37" width="32" height="32" transform="translate(0 -0.5)" fill="none"/>
    <g id="Grupo_30" data-name="Grupo 30" transform="translate(-0.8 -200.5)">
      <path id="Caminho_58" data-name="Caminho 58" d="M3.5,210.5V206a3,3,0,0,1,3-3h21a3,3,0,0,1,3,3v18a3,3,0,0,1-3,3h-9" fill="none" stroke="#0047ba" stroke-linecap="round" stroke-linejoin="round" stroke-width="2"/>
      <path id="Caminho_62" data-name="Caminho 62" d="M20,219.5v-4.98" fill="none" stroke="#0047ba" stroke-linecap="round" stroke-linejoin="round" stroke-width="2" opacity="0.5"/>
      <path id="Caminho_63" data-name="Caminho 63" d="M24.5,219.5v-8.175" fill="none" stroke="#0047ba" stroke-linecap="round" stroke-linejoin="round" stroke-width="2" opacity="0.5"/>
      <path id="Caminho_86" data-name="Caminho 86" d="M-1410.966-1203.2a1.249,1.249,0,0,1-1.247-1.247v-.365a.077.077,0,0,0-.051-.073l-.009,0c-.122-.049-.228-.094-.324-.138a.08.08,0,0,0-.091.016l-.261.26a1.242,1.242,0,0,1-.881.365,1.243,1.243,0,0,1-.881-.364l-.94-.94a1.253,1.253,0,0,1,0-1.762l.261-.261a.077.077,0,0,0,.016-.089c-.05-.11-.094-.218-.138-.329a.077.077,0,0,0-.074-.054h-.366a1.249,1.249,0,0,1-1.247-1.247v-1.329a1.249,1.249,0,0,1,1.247-1.247h.366a.08.08,0,0,0,.076-.05c.044-.118.089-.225.139-.332a.079.079,0,0,0-.015-.09l-.261-.261a1.253,1.253,0,0,1,0-1.762l.94-.943a1.244,1.244,0,0,1,.882-.364,1.244,1.244,0,0,1,.881.363l.261.261a.079.079,0,0,0,.089.017q.163-.074.329-.138a.078.078,0,0,0,.054-.074v-.366a1.249,1.249,0,0,1,1.247-1.247h1.329a1.249,1.249,0,0,1,1.247,1.247v.365a.078.078,0,0,0,.051.074l.007,0c.126.05.229.094.325.138a.082.082,0,0,0,.091-.015l.26-.261a1.244,1.244,0,0,1,.882-.364,1.24,1.24,0,0,1,.881.364l.94.94a1.254,1.254,0,0,1,0,1.762l-.262.261a.082.082,0,0,0-.016.09q.076.165.138.329a.079.079,0,0,0,.074.054h.366a1.249,1.249,0,0,1,1.247,1.247v1.329a1.249,1.249,0,0,1-1.247,1.247h-.365a.078.078,0,0,0-.074.05l0,.007c-.047.118-.092.224-.138.325a.08.08,0,0,0,.015.091l.261.261a1.252,1.252,0,0,1,0,1.762l-.94.94a1.242,1.242,0,0,1-.883.365,1.236,1.236,0,0,1-.879-.362l-.261-.261a.079.079,0,0,0-.09-.016c-.109.049-.22.1-.329.138a.078.078,0,0,0-.054.074v.365a1.248,1.248,0,0,1-1.247,1.247Zm-1.147-2.885c.085.038.172.075.261.108a1.261,1.261,0,0,1,.8,1.164v.366a.082.082,0,0,0,.082.083h1.329a.083.083,0,0,0,.083-.083v-.365a1.244,1.244,0,0,1,.8-1.164c.088-.033.176-.07.26-.108a1.228,1.228,0,0,1,.516-.112,1.239,1.239,0,0,1,.878.361l.262.261a.084.084,0,0,0,.058.024.085.085,0,0,0,.058-.024l.94-.94h0a.083.083,0,0,0,0-.116l-.261-.26a1.26,1.26,0,0,1-.25-1.4c.039-.085.076-.172.109-.26a1.259,1.259,0,0,1,1.164-.8h.366a.082.082,0,0,0,.083-.082v-1.329a.083.083,0,0,0-.083-.083h-.365a1.261,1.261,0,0,1-1.164-.8c-.033-.086-.069-.174-.109-.261a1.258,1.258,0,0,1,.249-1.4l.261-.261a.083.083,0,0,0,0-.117l-.939-.94a.087.087,0,0,0-.059-.023.083.083,0,0,0-.059.025l-.26.258a1.238,1.238,0,0,1-.878.362,1.22,1.22,0,0,1-.517-.112c-.084-.038-.171-.074-.26-.108a1.259,1.259,0,0,1-.8-1.164v-.366a.083.083,0,0,0-.083-.083h-1.329a.082.082,0,0,0-.082.083v.365a1.26,1.26,0,0,1-.805,1.164c-.086.032-.173.069-.26.109a1.244,1.244,0,0,1-.516.112,1.243,1.243,0,0,1-.878-.361l-.262-.261a.082.082,0,0,0-.058-.025.085.085,0,0,0-.058.024l-.932.933-.007.007a.081.081,0,0,0-.023.058.081.081,0,0,0,.024.059l.261.26a1.259,1.259,0,0,1,.25,1.4c-.039.085-.075.172-.108.26a1.259,1.259,0,0,1-1.164.8h-.367a.082.082,0,0,0-.082.083v1.329a.082.082,0,0,0,.082.082h.366a1.259,1.259,0,0,1,1.164.8c.033.087.069.175.108.26a1.257,1.257,0,0,1-.249,1.4l-.261.262a.081.081,0,0,0,0,.116l.94.939,0,0a.081.081,0,0,0,.055.021.083.083,0,0,0,.058-.024l.261-.26a1.243,1.243,0,0,1,.88-.362A1.243,1.243,0,0,1-1412.114-1206.088Zm1.7-.776a.436.436,0,0,0-.049,0l-.034,0c-.069,0-.14-.006-.216-.015a3.689,3.689,0,0,1-.373-.07l-.023-.005a3.243,3.243,0,0,1-2.332-2.329,3.248,3.248,0,0,1,2.329-3.952,3.381,3.381,0,0,1,.352-.067l.119-.014c.073-.007.148-.012.233-.014l.027,0c.022,0,.049,0,.08,0a3.246,3.246,0,0,1,1.932.643l.054.041,0,0c.047.037.092.074.133.11s.071.064.106.1l.021.02c.024.022.048.046.07.069.049.049.1.1.15.166l.007.007.028.032a3.212,3.212,0,0,1,.324.473.311.311,0,0,1,.015.031,3.1,3.1,0,0,1,.156.333.012.012,0,0,1,0,.005c.018.047.036.095.053.142.026.076.049.149.068.221l.007.025c.013.048.026.1.038.149.017.079.031.164.045.274.01.083.016.167.02.259l0,.04c0,.031,0,.068,0,.107,0,.014,0,.03,0,.046v.01c0,.065,0,.128-.01.2s-.013.13-.024.211a3.764,3.764,0,0,1-.536,1.463,1.272,1.272,0,0,1-.22.269,4.179,4.179,0,0,1-.9.652l-.02.009c-.056.03-.11.055-.163.078l-.029.014c-.033.015-.071.033-.115.05s-.1.037-.147.054l-.014,0c-.042.015-.086.031-.134.045s-.117.032-.192.05l-.025.006-.081.018c-.085.017-.172.03-.265.041a.314.314,0,0,1-.044.005c-.115.011-.217.016-.311.016C-1410.341-1206.858-1410.38-1206.861-1410.414-1206.864Zm-.4-5.252-.013,0a2.077,2.077,0,0,0-1.495,1.5,2.065,2.065,0,0,0,.225,1.574,2.064,2.064,0,0,0,1.273.953,2.07,2.07,0,0,0,.241.046l.037,0c.068.007.14.012.209.013h.064c.052,0,.1,0,.143-.007l.11-.014.026,0,.014,0a2.172,2.172,0,0,0,.54-.163l.024-.013c.038-.017.074-.034.113-.055a2.071,2.071,0,0,0,1.04-1.453c.013-.073.022-.146.027-.217v-.014c0-.016,0-.032,0-.049v-.01a1.981,1.981,0,0,0,0-.205c0-.012,0-.025,0-.039s0-.02,0-.03a2.044,2.044,0,0,0-.037-.239c0-.019-.009-.035-.013-.051l-.009-.033c-.015-.059-.031-.113-.05-.166l-.009-.027c-.007-.021-.014-.041-.023-.062a1.932,1.932,0,0,0-.1-.213l-.047-.078c-.025-.042-.053-.085-.087-.134-.02-.027-.041-.056-.063-.084s-.06-.073-.1-.115l-.026-.029c-.012-.014-.023-.027-.035-.039-.05-.05-.107-.1-.166-.148l-.061-.046-.01-.006c-.049-.037-.1-.068-.14-.1l-.014-.009-.053-.032a2.133,2.133,0,0,0-.451-.19l-.034-.008-.028-.007c-.06-.015-.124-.029-.189-.039l-.03,0-.038-.006a2.042,2.042,0,0,0-.26-.017A2.112,2.112,0,0,0-1410.81-1212.116Z" transform="translate(1418.74 1432.162)" fill="#0047ba"/>
    </g>
  </g>
</svg>
