<svg xmlns="http://www.w3.org/2000/svg" width="32" height="32" viewBox="0 0 32 32">
  <g id="ic_vantagens" transform="translate(0 0.5)">
    <rect id="Retângulo_37" data-name="Retângulo 37" width="32" height="32" transform="translate(0 -0.5)" fill="none"/>
    <g id="Grupo_29" data-name="Grupo 29" transform="translate(0 0.75)">
      <path id="Caminho_80" data-name="Caminho 80" d="M7.5,128.5h-3A1.5,1.5,0,0,1,3,127v-9a1.5,1.5,0,0,1,1.5-1.5h3A1.5,1.5,0,0,1,9,118v9A1.5,1.5,0,0,1,7.5,128.5Z" transform="translate(-0.78 -98.75)" fill="none" stroke="#0047ba" stroke-linecap="round" stroke-linejoin="round" stroke-width="2"/>
      <path id="Caminho_81" data-name="Caminho 81" d="M18,122.5h3.5a3,3,0,0,0,1.8-.6l3.624-2.718a2.273,2.273,0,0,1,2.97.211h0a2.271,2.271,0,0,1,0,3.213l-3.109,3.11a6.01,6.01,0,0,1-3.066,1.641l-4.4.879a6,6,0,0,1-2.632-.063l-3.975-.993a5.935,5.935,0,0,0-1.453-.18H9" transform="translate(-0.78 -98.75)" fill="none" stroke="#0047ba" stroke-linecap="round" stroke-linejoin="round" stroke-width="2"/>
      <path id="Caminho_82" data-name="Caminho 82" d="M18,122.5h2.228a2.272,2.272,0,0,0,2.272-2.273v-.454a2.271,2.271,0,0,0-1.721-2.2l-3.438-.859a7.033,7.033,0,0,0-1.708-.21h0a7.039,7.039,0,0,0-3.908,1.183L9,119.5" transform="translate(-0.78 -98.75)" fill="none" stroke="#0047ba" stroke-linecap="round" stroke-linejoin="round" stroke-width="2"/>
      <path id="Caminho_85" data-name="Caminho 85" d="M-1413.536-1306.5a4.241,4.241,0,0,1-3.145-1.4l-.053-.056-.01-.007-.017-.017a4.2,4.2,0,0,1-1.239-2.989v-6.073a4.2,4.2,0,0,1,1.239-2.989l.026-.024c.012-.011.035-.035.053-.054a4.233,4.233,0,0,1,3.146-1.4h6.073a4.237,4.237,0,0,1,3.145,1.4l.053.055.01.007.017.017a4.2,4.2,0,0,1,1.238,2.989v6.073a4.2,4.2,0,0,1-1.238,2.989l-.026.024c-.012.011-.035.035-.053.055a4.237,4.237,0,0,1-3.146,1.4Zm-1.945-12.424a1.362,1.362,0,0,1-.1.1,2.524,2.524,0,0,0-.734,1.787v6.073a2.528,2.528,0,0,0,.734,1.788,1.154,1.154,0,0,1,.1.1,2.578,2.578,0,0,0,1.942.89h6.073a2.593,2.593,0,0,0,1.945-.893,1.307,1.307,0,0,1,.1-.1,2.526,2.526,0,0,0,.734-1.788v-6.073a2.524,2.524,0,0,0-.734-1.787,1.224,1.224,0,0,1-.1-.1,2.582,2.582,0,0,0-1.942-.889h-6.073A2.594,2.594,0,0,0-1415.481-1318.924Zm4.139,7.143v-1.377h-1.377a.843.843,0,0,1-.842-.842.843.843,0,0,1,.842-.842h1.377v-1.378a.843.843,0,0,1,.842-.842.843.843,0,0,1,.842.842v1.378h1.378a.843.843,0,0,1,.842.842.843.843,0,0,1-.842.842h-1.378v1.377a.843.843,0,0,1-.842.842A.843.843,0,0,1-1411.343-1311.781Z" transform="translate(1430.721 1321.25)" fill="#0047ba" opacity="0.5"/>
    </g>
  </g>
</svg>
