<svg id="img-003" xmlns="http://www.w3.org/2000/svg" xmlns:xlink="http://www.w3.org/1999/xlink" width="1008" height="358.855" viewBox="0 0 1008 358.855">
  <defs>
    <linearGradient id="linear-gradient" x1="0.5" y1="-0.807" x2="0.5" y2="1" gradientUnits="objectBoundingBox">
      <stop offset="0" stop-color="#0047ba"/>
      <stop offset="1" stop-color="#006"/>
    </linearGradient>
  </defs>
  <path id="Caminho_502" data-name="Caminho 502" d="M59.047,326.644A59.112,59.112,0,0,1,0,267.6V75.047a59.109,59.109,0,0,1,59.041-59.04H286.813V78.126H67.671a5.956,5.956,0,0,0-5.949,5.949V134.3a5.956,5.956,0,0,0,5.949,5.949H212.6v62.038H67.671a5.953,5.953,0,0,0-5.949,5.946V258.57a5.956,5.956,0,0,0,5.949,5.949H286.813v62.125Z" transform="translate(0 32.21)" fill="url(#linear-gradient)"/>
  <path id="Caminho_503" data-name="Caminho 503" d="M171.418,326.211a59.112,59.112,0,0,1-59.047-59.047V75.054a59.112,59.112,0,0,1,59.047-59.047H399.19V78.126H180.042a5.956,5.956,0,0,0-5.949,5.949V258.136a5.956,5.956,0,0,0,5.949,5.949H399.19v62.125Z" transform="translate(226.121 32.267)" fill="url(#linear-gradient)"/>
  <path id="Caminho_504" data-name="Caminho 504" d="M446.72,187.607,301.905,16.007H220.619L403.753,233.014q22.506-21.747,42.967-45.407" transform="translate(443.945 32.21)" fill="url(#linear-gradient)"/>
  <path id="Caminho_505" data-name="Caminho 505" d="M308.709,74.114h0l-18.065,74.918,51.212,60.685h81.289Z" transform="translate(584.855 149.138)" fill="url(#linear-gradient)"/>
  <path id="Caminho_506" data-name="Caminho 506" d="M217.813,358.855l8.091-5.967c9.489-7,18.812-14.112,27.71-21.131,69.782-55.04,128.714-115.135,165.94-169.217C455.713,110.008,467,70.147,451.348,50.3c-7.1-9.007-19.694-13.573-37.421-13.573-12.531,0-27.493,2.316-44.467,6.889l-1.449.407a5.075,5.075,0,0,1-1.446.2,5.021,5.021,0,0,1-3.573-1.473,5.11,5.11,0,0,1,0-7.208,4.7,4.7,0,0,1,1.045-.771l.256-.133,2.238-1.069C413.517,11.6,454.8,0,485.932,0c23.439,0,40.4,6.443,50.423,19.146,19.4,24.6,9.9,68.975-26.77,124.958A707.5,707.5,0,0,1,355.528,312.291c-20.721,16.342-42.072,31.825-63.46,46.012l-.831.551Z" transform="translate(438.299)" fill="url(#linear-gradient)"/>
</svg>
