<svg id="logo" xmlns="http://www.w3.org/2000/svg" xmlns:xlink="http://www.w3.org/1999/xlink" width="132.007" height="31.964" viewBox="0 0 132.007 31.964">
  <defs>
    <clipPath id="clip-path">
      <rect id="Retângulo_31" data-name="Retângulo 31" width="132.007" height="31.964" fill="none"/>
    </clipPath>
  </defs>
  <g id="Grupo_16" data-name="Grupo 16" clip-path="url(#clip-path)">
    <path id="Caminho_35" data-name="Caminho 35" d="M352.4,59.744a2.645,2.645,0,0,1,0-5.286,2.342,2.342,0,0,1,2.3,1.574h1.223a3.506,3.506,0,0,0-3.524-2.743,3.812,3.812,0,0,0,0,7.624h0a3.528,3.528,0,0,0,3.552-2.848h-1.226a2.339,2.339,0,0,1-2.326,1.679" transform="translate(-255.074 -38.991)" fill="#00205b"/>
    <path id="Caminho_36" data-name="Caminho 36" d="M391.673,53.776l-2.958,7.363H390l.626-1.6h3.283l.637,1.6h1.31l-3.046-7.363Zm-.631,4.679,1.214-3.1,1.231,3.1Z" transform="translate(-284.418 -39.347)" fill="#00205b"/>
    <path id="Caminho_37" data-name="Caminho 37" d="M436.458,56.1a2.329,2.329,0,0,0-2.474-2.33h-2.866v7.363h1.208V58.413h1.4l1.583,2.725h1.356l-1.7-2.895a2.236,2.236,0,0,0,1.5-2.138m-2.544,1.177h-1.587V54.906h1.587a1.194,1.194,0,1,1,0,2.375" transform="translate(-315.444 -39.347)" fill="#00205b"/>
    <path id="Caminho_38" data-name="Caminho 38" d="M470.995,53.776h-2.6v7.362h2.6a3.682,3.682,0,1,0,0-7.362m-.035,6.236h-1.353V54.9h1.353a2.555,2.555,0,0,1,0,5.109" transform="translate(-342.722 -39.347)" fill="#00205b"/>
    <path id="Caminho_39" data-name="Caminho 39" d="M5.259,43.676A5.265,5.265,0,0,1,0,38.417V21.266a5.265,5.265,0,0,1,5.259-5.259H25.547V21.54H6.028a.531.531,0,0,0-.53.53v4.474a.531.531,0,0,0,.53.53H18.937V32.6H6.028a.53.53,0,0,0-.53.53v4.483a.531.531,0,0,0,.53.53h19.52v5.534Z" transform="translate(0 -11.712)" fill="#00205b"/>
    <path id="Caminho_40" data-name="Caminho 40" d="M117.63,43.638a5.265,5.265,0,0,1-5.259-5.259V21.266a5.265,5.265,0,0,1,5.259-5.259h20.288V21.54H118.4a.531.531,0,0,0-.53.53v15.5a.531.531,0,0,0,.53.53h19.52v5.534Z" transform="translate(-82.221 -11.712)" fill="#00205b"/>
    <path id="Caminho_41" data-name="Caminho 41" d="M243.969,43.676l-23.35-27.669h7.241l23.35,27.669Z" transform="translate(-161.424 -11.712)" fill="#00205b"/>
    <path id="Caminho_42" data-name="Caminho 42" d="M217.813,31.964l.721-.532c.845-.624,1.676-1.257,2.468-1.882a73.852,73.852,0,0,0,14.781-15.073c3.221-4.679,4.226-8.23,2.832-10a4.034,4.034,0,0,0-3.333-1.209,15.614,15.614,0,0,0-3.961.614l-.129.036a.452.452,0,0,1-.129.018.447.447,0,0,1-.318-.131.455.455,0,0,1,0-.642.42.42,0,0,1,.093-.069l.023-.012.2-.1C235.245,1.034,238.922,0,241.7,0c2.088,0,3.6.574,4.491,1.705,1.728,2.191.881,6.144-2.384,11.13A63.019,63.019,0,0,1,230.08,27.817c-1.846,1.456-3.748,2.835-5.653,4.1l-.074.049Z" transform="translate(-159.371)" fill="#ffb71b"/>
    <path id="Caminho_43" data-name="Caminho 43" d="M285.2,72.931Q283.361,75.05,281.343,77h0l2.5,2.915,1.609-6.673-.243-.318-.006,0" transform="translate(-205.855 -53.361)" fill="#000d23"/>
  </g>
</svg>
