<svg xmlns="http://www.w3.org/2000/svg" xmlns:xlink="http://www.w3.org/1999/xlink" width="1033.953" height="102.854" viewBox="0 0 1033.953 102.854">
  <defs>
    <linearGradient id="linear-gradient" x1="1" y1="0.604" x2="0.319" y2="1" gradientUnits="objectBoundingBox">
      <stop offset="0" stop-color="#ffb71a"/>
      <stop offset="1" stop-color="#b29d6e"/>
    </linearGradient>
  </defs>
  <g id="img-chart" transform="translate(4.134 1.723)">
    <path id="Caminho_203" data-name="Caminho 203" d="M-1022.346-2459.348a381.524,381.524,0,0,1-49.63-3.782c-18.153-2.43-38.708-6.084-61.093-10.861l-3.329-.715c-21.041-4.556-43.9-10.138-67.957-16.592-24.464-6.563-49.844-13.931-75.435-21.9-6.066-1.888-11.753-3.688-17.384-5.5l-5.309-1.716-6.794-2.222.73.229-.1-.042c-.245-.1-.749-.31-.732-.4.005-.027.059-.04.159-.04a5.3,5.3,0,0,1-5.3-5.295,5.3,5.3,0,0,1,5.3-5.295c.118,0,.179-.015.187-.046.016-.064-.213-.181-.35-.25a.422.422,0,0,1-.1-.057h0a.309.309,0,0,1,.068.014l7.248,2.366,8.233,2.67c5.679,1.827,11.334,3.616,17.289,5.47l3.8,1.179c24.129,7.464,48.095,14.4,71.231,20.6,23.9,6.412,46.6,11.953,67.453,16.469,22.755,4.927,43.613,8.7,61.994,11.214a375.747,375.747,0,0,0,49.814,3.9,263.779,263.779,0,0,0,40.053-3.191,421.9,421.9,0,0,0,44.531-9.513l1.589-.422c12.985-3.465,23.739-6.666,44.26-13.172l18.678-5.96c35.755-11.432,52.518-16.312,71.747-20.885l3.248-.762a396,396,0,0,1,39.41-7.2,289.408,289.408,0,0,1,36.981-2.435,346.968,346.968,0,0,1,37.759,2.117c12.76,1.385,25.968,3.43,40.38,6.255,18.828,3.691,34.975,7.548,66.453,15.874l15.737,4.182c33.157,8.805,46.815,12.159,63.542,15.6l5.426,1.1c13.355,2.643,25.516,4.556,37.178,5.847a308.173,308.173,0,0,0,34.214,1.97c25.453,0,59.037-3.5,99.819-10.4v10.743c-19.9,3.337-38.278,5.891-54.636,7.593a444.428,444.428,0,0,1-45.176,2.656,319.494,319.494,0,0,1-36.134-2.118c-12.271-1.384-25.086-3.436-39.177-6.272-20.807-4.187-36.083-8.04-74.45-18.262l-12.188-3.231c-27.862-7.345-42.979-10.965-59.908-14.349l-4.694-.922c-13.67-2.63-26.212-4.536-38.343-5.826a335.5,335.5,0,0,0-35.8-1.968,279.84,279.84,0,0,0-36.571,2.471,391.371,391.371,0,0,0-39.262,7.315c-19.227,4.53-35.6,9.268-70.086,20.275l-8.537,2.731c-29.286,9.364-41.226,12.983-55.544,16.834l-4.942,1.312a425.021,425.021,0,0,1-44.831,9.428A273.176,273.176,0,0,1-1022.346-2459.348Z" transform="translate(1328.83 2545.938)" fill="url(#linear-gradient)"/>
    <g id="Retângulo_66" data-name="Retângulo 66" transform="matrix(-0.469, 0.883, -0.883, -0.469, 1025.762, 52.985)" fill="#ffb71a" stroke="#006" stroke-width="3">
      <rect width="24" height="24" rx="4" stroke="none"/>
      <rect x="-1.5" y="-1.5" width="27" height="27" rx="5.5" fill="none"/>
    </g>
    <g id="Retângulo_69" data-name="Retângulo 69" transform="matrix(-0.669, 0.743, -0.743, -0.669, 345.375, 79.059)" fill="#ffb71a" stroke="#006" stroke-width="3">
      <rect width="24" height="24" rx="4" stroke="none"/>
      <rect x="-1.5" y="-1.5" width="27" height="27" rx="5.5" fill="none"/>
    </g>
    <g id="Retângulo_70" data-name="Retângulo 70" transform="matrix(-0.848, 0.53, -0.53, -0.848, 33.071, 22.764)" fill="#ffb71a" stroke="#006" stroke-width="3">
      <rect width="24" height="24" rx="4" stroke="none"/>
      <rect x="-1.5" y="-1.5" width="27" height="27" rx="5.5" fill="none"/>
    </g>
  </g>
</svg>
