<svg width="80" height="80" viewBox="0 0 80 80" fill="none" xmlns="http://www.w3.org/2000/svg">
<circle cx="40" cy="40" r="40" fill="#009F4D" fill-opacity="0.69"/>
<g clip-path="url(#clip0)">
<path d="M57.1374 21.7703C54.893 19.4708 52.2203 17.6477 49.2749 16.4074C46.3295 15.167 43.1704 14.5341 39.9817 14.5456C26.6199 14.5456 15.7305 25.5969 15.7182 39.1642C15.7182 43.5096 16.8381 47.7369 18.9523 51.4797L15.5224 64.2425L28.3854 60.8197C31.9438 62.7855 35.9304 63.816 39.9817 63.817H39.9939C53.3587 63.817 64.2451 52.7656 64.2573 39.1859C64.2604 35.9496 63.6326 32.7446 62.4101 29.7556C61.1876 26.7666 59.3946 24.0527 57.1343 21.7703H57.1374ZM39.9817 59.6487C36.3681 59.6499 32.821 58.6628 29.7133 56.7911L28.979 56.3438L21.3481 58.3752L23.3858 50.8181L22.9085 50.0385C20.8885 46.7782 19.8202 43.0034 19.8274 39.1518C19.8274 27.8892 28.8749 18.7015 39.9939 18.7015C42.6428 18.6966 45.2664 19.2241 47.7136 20.2535C50.1607 21.2829 52.3829 22.7939 54.2521 24.6993C56.1278 26.5972 57.6148 28.8534 58.6272 31.3376C59.6397 33.8219 60.1577 36.4851 60.1512 39.1735C60.139 50.4765 51.0914 59.6487 39.9817 59.6487ZM51.0425 44.3234C50.4397 44.0159 47.4626 42.5281 46.9027 42.3169C46.3458 42.115 45.9389 42.0094 45.5411 42.6244C45.1342 43.2362 43.9715 44.6309 43.6227 45.0315C43.2739 45.4447 42.9128 45.4912 42.307 45.1868C41.7043 44.8762 39.7491 44.2302 37.436 42.1274C35.6308 40.4967 34.4222 38.4778 34.0611 37.8659C33.7123 37.2509 34.0275 36.9216 34.3304 36.6141C34.5966 36.3408 34.9331 35.8935 35.2361 35.5394C35.542 35.1853 35.643 34.9244 35.8419 34.5144C36.0408 34.0982 35.9459 33.7441 35.796 33.4366C35.643 33.1291 34.4344 30.0945 33.9234 28.8707C33.4339 27.6625 32.9352 27.8302 32.5619 27.8147C32.2131 27.7929 31.8061 27.7929 31.3992 27.7929C31.0919 27.8007 30.7895 27.8728 30.5109 28.0048C30.2324 28.1369 29.9838 28.3259 29.7806 28.5601C29.2237 29.1751 27.6664 30.6629 27.6664 33.6975C27.6664 36.7322 29.8387 39.6487 30.1447 40.0619C30.4446 40.475 34.4099 46.684 40.4957 49.3552C41.9337 49.9919 43.0658 50.3678 43.9501 50.6535C45.4034 51.1256 46.7161 51.0542 47.7625 50.902C48.9252 50.7219 51.3454 49.4111 51.8564 47.973C52.3581 46.5318 52.3581 45.3018 52.2052 45.044C52.0552 44.7831 51.6483 44.6309 51.0425 44.3234Z" fill="white" fill-opacity="0.69"/>
</g>
<defs>
<clipPath id="clip0">
<rect width="48.9552" height="49.697" fill="white" transform="translate(15.5224 14.5454)"/>
</clipPath>
</defs>
</svg>
